<svg width="222" height="34" viewBox="0 0 222 34" fill="none" xmlns="http://www.w3.org/2000/svg">
<path d="M58.2354 20.0095C58.2354 24.5813 55.7284 27.7293 50.7123 27.7293C45.6962 27.7293 43.0897 24.5834 43.0897 20.0095V1.73057C43.0897 1.07261 42.5566 0.539474 41.8986 0.539474H37.202C36.544 0.539474 36.0109 1.07261 36.0109 1.73057V20.257C36.0109 28.3217 40.6822 33.926 50.7123 33.926C60.7424 33.926 65.3164 28.3704 65.3164 20.2083V1.73268C65.3164 1.07472 64.7832 0.541592 64.1253 0.541592H59.4286C58.7707 0.541592 58.2375 1.07472 58.2375 1.73268V20.0116L58.2354 20.0095Z" fill="white"/>
<path d="M79.3789 0.539474L67.1887 32.0537C66.9496 32.6714 67.4066 33.3378 68.0688 33.3378H73.7027C74.0983 33.3378 74.4537 33.0903 74.5891 32.718L76.4276 27.6828H91.0803L92.9188 32.718C93.0542 33.0903 93.4096 33.3378 93.8052 33.3378H99.3926C100.055 33.3378 100.512 32.6735 100.273 32.0558L88.129 0.541592H79.3767L79.3789 0.539474ZM78.2978 21.6321L83.7561 6.5859L89.1657 21.6321H78.2999H78.2978Z" fill="white"/>
<path d="M109.755 0.539474H104.861C104.284 0.539474 103.818 1.00702 103.818 1.58247V33.3357H123.623C124.2 33.3357 124.666 32.8682 124.666 32.2927V28.235C124.666 27.6574 124.198 27.192 123.623 27.192H110.8V1.58459C110.8 1.00703 110.332 0.541592 109.757 0.541592L109.755 0.539474Z" fill="white"/>
<path d="M143.761 21.2386H151.168V25.2223C149.742 26.5002 147.087 27.7293 144.087 27.7293C138.138 27.7293 133.809 23.1575 133.809 16.9609C133.809 10.7642 138.136 6.1924 144.087 6.1924C147.095 6.1924 149.617 7.58236 151.221 9.47795C151.627 9.95608 152.321 10.0703 152.873 9.77201L156.322 7.90181C157.06 7.50196 157.25 6.53513 156.732 5.87717C154.145 2.58528 150.1 0 144.087 0C134.499 0 126.631 6.58802 126.631 16.963C126.631 27.338 134.499 33.9767 144.087 33.9767C150.036 33.9767 154.707 31.5184 158.052 27.7822V15.243H143.761C143.019 15.243 142.416 15.8459 142.416 16.5885V19.8952C142.416 20.6378 143.019 21.2408 143.761 21.2408V21.2386Z" fill="white"/>
<path d="M172.459 0.539475L160.409 31.694C160.102 32.4852 160.686 33.3357 161.534 33.3357H166.599C167.107 33.3357 167.56 33.0184 167.733 32.5424L169.508 27.6807H184.161L185.936 32.5424C186.109 33.0184 186.562 33.3357 187.07 33.3357H192.088C192.937 33.3357 193.518 32.4852 193.214 31.694L181.21 0.537357H172.457L172.459 0.539475ZM171.378 21.6321L176.837 6.5859L182.246 21.6321H171.381H171.378Z" fill="white"/>
<path d="M209.043 13.2734C205.256 12.389 202.503 11.6993 202.503 9.48641C202.503 7.51888 204.175 6.14373 207.323 6.14373C210.12 6.14373 213.179 7.00902 215.679 8.87287C216.28 9.31927 217.133 9.18387 217.586 8.58727L219.82 5.64445C220.27 5.05208 220.16 4.20583 219.574 3.74674C216.464 1.3159 212.495 0.0465317 207.816 0.0465317C200.096 0.0465317 195.376 4.4724 195.376 9.93068C195.376 17.257 202.26 18.7316 207.619 19.9608C211.406 20.8451 214.258 21.6808 214.258 24.1413C214.258 26.0093 212.39 27.8288 208.554 27.8288C204.718 27.8288 201.492 26.35 199.205 24.4121C198.602 23.9001 197.69 24.0122 197.227 24.6532L194.999 27.7357C194.582 28.3111 194.682 29.1066 195.221 29.5699C198.272 32.1933 202.518 33.9239 208.211 33.9239C217.063 33.9239 221.341 29.4007 221.341 23.4008C221.341 16.1231 214.457 14.5004 209.049 13.2712L209.043 13.2734Z" fill="white"/>
<path d="M12.5276 8.0499C12.5276 8.0499 14.4062 12.9877 11.4465 17.1407C8.57136 21.1773 4.90289 27.0016 11.4613 32.993C11.6602 33.1749 11.5205 33.5092 11.2497 33.4838C9.63763 33.3399 5.89934 32.5741 2.76189 28.7025C-2.59273 22.0912 1.07786 17.2528 3.43465 15.2324C5.79144 13.212 11.0678 11.8644 12.5254 8.0499H12.5276Z" fill="#00E500"/>
<path d="M31.0434 16.9609C31.0434 7.07672 23.9138 0.537354 13.6361 0.537354H9.17855C8.35557 0.537354 7.68704 1.20589 7.68704 2.02886V5.19382C7.68704 6.0168 8.35557 6.68533 9.17855 6.68533H13.6361C20.3723 6.68533 23.9117 11.1599 23.9117 16.963C23.9117 22.7661 20.1247 27.1898 13.6361 27.1898H13.2786C13.2786 27.1898 12.7222 27.2301 11.5417 26.9762C11.3449 26.9339 11.1736 26.8767 11.0234 26.809C10.6087 26.6229 10.156 27.0079 10.2617 27.4501C10.6087 28.912 11.4486 31.1862 13.7758 33.048C13.9746 33.2067 14.1756 33.2828 14.3681 33.3146C14.4083 33.3272 14.4507 33.3357 14.493 33.3357C14.512 33.3357 14.5311 33.3357 14.5501 33.3357C14.6665 33.3421 14.7786 33.3378 14.8822 33.3315C14.9817 33.3315 15.0811 33.3272 15.1805 33.3251C15.1869 33.3251 15.1911 33.3251 15.1975 33.3251C25.0541 33.0332 31.0392 26.6165 31.0392 16.9609H31.0434Z" fill="white"/>
</svg>
