<svg width="718" height="123" viewBox="0 0 718 123" fill="none" xmlns="http://www.w3.org/2000/svg">
<path d="M21.1697 15.9253C21.5095 15.1719 21.8492 14.2117 22.2038 13.0446C22.5435 11.8775 22.839 10.6809 23.0754 9.45476C23.3118 8.2286 23.5334 7.04672 23.7402 5.9092C23.947 4.78645 24.0504 3.79669 24.0504 2.98417C24.0504 1.00459 24.9073 0 26.621 0C27.921 0 28.9699 0.487556 29.7528 1.43303C30.5358 2.39327 30.9347 3.66376 30.9347 5.2297C30.9347 7.07632 30.4471 9.83884 29.5016 13.5025C28.5414 17.1662 27.1232 21.6572 25.2323 26.9607C23.3414 32.2642 21.0368 38.3508 18.289 45.2054C15.5412 52.0601 12.4241 59.5648 8.93765 67.7047C11.3309 67.2319 13.3105 66.9217 14.8468 66.774C16.3832 66.641 18.1117 66.5671 20.0322 66.5671C25.0993 66.5671 29.0733 67.1434 31.954 68.3104C34.8347 69.4775 36.2677 71.0877 36.2677 73.1411C36.2677 74.1752 35.6472 74.6776 34.4211 74.6776C34.0813 74.6776 33.712 74.648 33.3427 74.5742C32.9586 74.5003 31.8801 74.2048 30.1074 73.6435C29.5608 73.4366 28.6301 73.2889 27.33 73.1855C26.03 73.0821 24.5823 73.0377 23.0164 73.0377C22.0561 73.0377 20.9777 73.0969 19.7811 73.1855C18.5845 73.2889 17.3582 73.4071 16.1321 73.54C14.9059 73.673 13.7241 73.8502 12.5866 74.0571C11.4491 74.2639 10.5184 74.4708 9.76493 74.6776C8.80469 74.8844 8.02175 75.0469 7.40129 75.1946C6.78082 75.3276 6.30804 75.4014 5.96826 75.4014C5.21484 75.4014 4.49102 75.2094 3.81146 74.8401C3.1319 74.4707 2.4966 73.9832 1.90568 73.407C1.32954 72.8309 0.856798 72.1809 0.517019 71.457C0.17724 70.7331 0 70.0092 0 69.241C0 68.9604 0.0147261 68.7093 0.0442721 68.4729C0.0738181 68.2365 0.177262 67.8671 0.354538 67.3944C0.531814 66.9217 0.81254 66.2126 1.22618 65.2819C1.63983 64.3512 2.21596 63.0364 2.96939 61.3227L21.1549 15.8958L21.1697 15.9253Z" fill="white"/>
<path d="M68.6501 62.0762C65.2966 66.1831 62.15 69.3592 59.2397 71.5752C56.3294 73.8059 53.8032 74.9139 51.6907 74.9139C49.3566 74.9139 47.4804 74.0571 46.0326 72.3434C44.5849 70.6298 43.8758 68.4433 43.8758 65.7694C43.8758 61.5887 46.3134 56.0783 51.1737 49.2236C53.2271 46.4168 55.3101 43.8463 57.4374 41.5122C59.5647 39.1781 61.6477 37.1984 63.7012 35.5438C65.7546 33.904 67.7194 32.6188 69.6104 31.6881C71.5013 30.7574 73.2298 30.2994 74.7957 30.2994C76.9821 30.2994 78.8435 31.0825 80.3504 32.6632C81.8572 34.2439 82.6107 36.1643 82.6107 38.4246C82.6107 39.5917 81.9902 41.2315 80.764 43.3588C80.9709 43.9054 81.0742 44.2452 81.0742 44.3929C81.0742 44.7327 80.9412 45.1759 80.6605 45.7225C79.981 47.3623 79.3457 49.1055 78.7548 50.9668C78.1786 52.8135 77.6765 54.6158 77.2629 56.359C76.8492 58.1022 76.5242 59.7716 76.2878 61.3375C76.0514 62.9182 75.9332 64.2922 75.9332 65.4445C75.9332 66.4047 76.0218 67.2911 76.1843 68.1184C76.3615 68.9457 76.8196 70.3047 77.573 72.2252C77.706 72.7718 77.7799 73.215 77.7799 73.5548C77.7799 74.1753 77.4843 74.7514 76.9081 75.298C76.332 75.8446 75.6969 76.1253 75.0025 76.1253C73.9093 76.1253 72.8162 75.5935 71.7082 74.5298C70.615 73.4661 69.7876 72.1514 69.241 70.5706C68.9604 69.8172 68.7831 69.049 68.6797 68.2513C68.5762 67.4535 68.532 66.4933 68.532 65.3262V63.9966C68.532 63.45 68.5614 62.8 68.6353 62.0466L68.6501 62.0762ZM76.1549 39.5621C76.1549 38.0553 75.5344 37.3018 74.3083 37.3018C71.7082 37.3018 68.1774 39.8428 63.716 44.91C62.0761 46.8304 60.5101 48.7953 59.0328 50.8192C57.5555 52.8431 56.2703 54.8079 55.1771 56.7284C54.0839 58.6488 53.2123 60.392 52.5623 61.9727C51.9123 63.5535 51.5874 64.8092 51.5874 65.7694C51.5874 66.8035 52.1043 67.3058 53.1236 67.3058C53.4634 67.3058 54.01 67.0694 54.7634 66.5819C55.5168 66.1092 56.3737 65.4592 57.3339 64.6319C58.2942 63.8046 59.2988 62.8886 60.3624 61.8545C61.4261 60.8204 62.4307 59.7716 63.391 58.6636C64.8978 56.8761 66.3012 55.1033 67.6013 53.3158C68.9013 51.5283 70.0387 49.7555 70.9989 47.968C71.2058 47.5543 71.3978 47.2145 71.5603 46.9338C71.7376 46.6532 71.8854 46.3134 72.0184 45.8997C72.1513 45.4861 72.3582 44.9543 72.6389 44.3043C72.9048 43.6543 73.2593 42.7088 73.6729 41.4826C73.9389 40.8031 74.2196 40.3303 74.5003 40.0939C74.7662 39.8576 75.3276 39.6655 76.1401 39.5326L76.1549 39.5621Z" fill="white"/>
<path d="M115.51 59.7125C115.022 60.6728 114.698 61.5148 114.535 62.2239C114.358 62.9477 114.284 63.7898 114.284 64.7353C114.284 66.1683 114.491 67.1138 114.904 67.557C115.318 68.0002 116.175 68.2218 117.475 68.2218C118.642 68.2218 119.735 68.1035 120.769 67.8672C121.803 67.6308 122.823 67.2468 123.857 66.7297C124.891 66.2126 125.969 65.5331 127.092 64.6762C128.23 63.8194 129.47 62.741 130.844 61.4409C131.598 60.6875 132.322 60.3034 133.001 60.3034C133.474 60.3034 133.932 60.5103 134.331 60.9239C134.745 61.3376 134.951 61.8103 134.951 62.3569C134.951 63.6569 134.346 65.0456 133.149 66.5229C131.952 68.0002 130.445 69.3445 128.628 70.5854C126.811 71.8116 124.847 72.8456 122.719 73.6729C120.592 74.5002 118.568 74.8991 116.662 74.8991C115.362 74.8991 114.121 74.6184 112.969 74.0718C111.802 73.5252 110.753 72.7719 109.837 71.8116C108.907 70.8514 108.183 69.7729 107.621 68.5763C107.075 67.3797 106.794 66.0944 106.794 64.7205C106.794 62.1943 107.444 59.4761 108.744 56.5954C110.044 53.7146 112.068 50.435 114.801 46.727C116.515 44.3929 118.258 42.2951 120.045 40.4042C121.833 38.5133 123.547 36.903 125.186 35.5734C126.826 34.2438 128.392 33.2098 129.869 32.4859C131.347 31.762 132.632 31.4074 133.725 31.4074C135.912 31.4074 137.61 32.0279 138.807 33.254C140.004 34.4802 140.609 36.2087 140.609 38.3951C140.609 39.9019 140.151 41.7338 139.221 43.8906C138.29 46.0475 137.153 48.0566 135.779 49.9032C133.179 53.1976 130.475 55.7533 127.654 57.5556C124.847 59.3727 122.143 60.2739 119.528 60.2739C118.982 60.2739 118.42 60.2443 117.829 60.1705C117.253 60.0966 116.47 59.9341 115.51 59.6534V59.7125ZM120.961 53.6408C122.261 53.7146 123.724 53.0942 125.334 51.7941C126.944 50.4941 128.88 48.3964 131.14 45.5304C131.819 44.7031 132.469 43.5951 133.09 42.1917C133.71 40.7882 134.021 39.7394 134.021 39.0598C134.021 38.7939 133.917 38.5132 133.71 38.2325C133.504 37.9518 133.297 37.8189 133.09 37.8189C132.41 37.8189 131.243 38.5576 129.589 40.0349C127.949 41.5122 126.265 43.344 124.551 45.5304C124.211 45.944 123.901 46.3134 123.621 46.6679C123.34 47.0077 123.015 47.4509 122.645 47.9975C122.261 48.5441 121.789 49.268 121.213 50.1543C120.636 51.0407 119.853 52.2078 118.893 53.6555H120.947L120.961 53.6408Z" fill="white"/>
<path d="M152.31 62.0761C150.803 63.6568 149.621 64.8978 148.764 65.8284C147.907 66.7591 147.228 67.483 146.711 68.0444C146.194 68.6058 145.839 69.0195 145.632 69.3297C145.425 69.64 145.219 69.9354 145.012 70.2013C144.465 70.8808 144.051 71.5309 143.786 72.1513C143.032 73.3184 142.397 74.1161 141.88 74.5593C141.363 75.0025 140.728 75.2241 139.974 75.2241C138.807 75.2241 137.802 74.6627 136.946 73.5252C136.089 72.3877 135.66 71.0434 135.66 69.4626C135.66 69.049 135.779 68.4729 136.015 67.7194C136.251 66.966 136.754 65.7546 137.507 64.0705C138.26 62.3863 139.354 60.0966 140.801 57.1863C142.234 54.276 144.155 50.4202 146.563 45.619C147.597 43.5656 148.38 41.9554 148.927 40.7883C149.473 39.6212 149.887 38.661 150.153 37.9075C150.433 37.1541 150.611 36.5336 150.714 36.0609C150.818 35.5882 150.906 34.9677 150.965 34.2143C151.039 33.4609 151.32 32.8404 151.837 32.3677C152.354 31.8949 152.989 31.6438 153.743 31.6438C154.363 31.6438 154.954 31.7915 155.545 32.1018C156.121 32.412 156.653 32.7813 157.14 33.2392C157.628 33.6972 158.012 34.1995 158.322 34.7757C158.633 35.3518 158.78 35.9279 158.78 36.4745C158.78 36.9472 158.736 37.4348 158.632 37.9075C158.529 38.395 158.293 39.0303 157.909 39.8576C157.525 40.6849 156.963 41.778 156.21 43.1519C155.456 44.5258 154.422 46.3429 153.122 48.6032C152.576 49.6964 151.97 50.8339 151.32 52.0009C150.67 53.168 149.961 54.3646 149.207 55.5908C151.261 53.6703 153.063 52.001 154.599 50.5532C156.136 49.1202 157.569 47.7463 158.869 46.4463C160.169 45.1463 161.425 43.861 162.621 42.5906C163.818 41.3201 165.103 39.9018 166.477 38.3211C167.703 36.9472 168.693 35.8688 169.402 35.0858C170.111 34.3029 170.702 33.712 171.145 33.3426C171.588 32.9733 171.943 32.7222 172.224 32.6188C172.489 32.5154 172.8 32.4711 173.154 32.4711C174.321 32.4711 175.237 33.0028 175.932 34.0665C176.626 35.1302 176.966 36.5484 176.966 38.3359C176.966 39.0893 176.862 39.828 176.655 40.5519C176.449 41.2757 176.079 42.3246 175.518 43.6837C173.538 48.4111 172.061 52.5918 171.101 56.226C170.141 59.8602 169.668 63.1841 169.668 66.1978C169.668 66.8182 169.683 67.3354 169.727 67.7342C169.757 68.1479 169.845 68.591 169.978 69.0637C170.111 69.5512 170.318 70.0683 170.599 70.6592C170.864 71.2354 171.278 71.974 171.825 72.8752C172.371 73.8354 172.652 74.6185 172.652 75.2389C172.652 75.7855 172.401 76.2287 171.884 76.5684C171.367 76.9082 170.731 77.0856 169.978 77.0856C169.298 77.0856 168.545 76.8787 167.718 76.465C166.891 76.0514 166.108 75.5048 165.354 74.8252C164.394 73.865 163.67 72.6831 163.197 71.2797C162.71 69.8763 162.473 68.1183 162.473 65.991C162.473 64.691 162.503 63.5091 162.577 62.4455C162.651 61.3818 162.813 60.2147 163.094 58.9443C163.36 57.6738 163.729 56.1817 164.172 54.468C164.616 52.7543 165.251 50.5237 166.078 47.7907L163.818 50.0509L152.31 62.0761Z" fill="white"/>
<path d="M187.351 59.7125C186.864 60.6728 186.539 61.5148 186.376 62.2239C186.199 62.9477 186.125 63.7898 186.125 64.7353C186.125 66.1683 186.332 67.1138 186.746 67.557C187.159 68.0002 188.016 68.2218 189.316 68.2218C190.483 68.2218 191.576 68.1035 192.61 67.8672C193.644 67.6308 194.664 67.2468 195.698 66.7297C196.732 66.2126 197.81 65.5331 198.933 64.6762C200.071 63.8194 201.312 62.741 202.685 61.4409C203.439 60.6875 204.163 60.3034 204.842 60.3034C205.315 60.3034 205.773 60.5103 206.172 60.9239C206.586 61.3376 206.792 61.8103 206.792 62.3569C206.792 63.6569 206.187 65.0456 204.99 66.5229C203.794 68.0002 202.287 69.3445 200.47 70.5854C198.652 71.8116 196.688 72.8456 194.56 73.6729C192.433 74.5002 190.409 74.8991 188.503 74.8991C187.203 74.8991 185.962 74.6184 184.81 74.0718C183.643 73.5252 182.594 72.7719 181.678 71.8116C180.748 70.8514 180.024 69.7729 179.462 68.5763C178.916 67.3797 178.635 66.0944 178.635 64.7205C178.635 62.1943 179.285 59.4761 180.585 56.5954C181.885 53.7146 183.909 50.435 186.642 46.727C188.356 44.3929 190.099 42.2951 191.886 40.4042C193.674 38.5133 195.388 36.903 197.027 35.5734C198.667 34.2438 200.233 33.2098 201.711 32.4859C203.188 31.762 204.473 31.4074 205.566 31.4074C207.753 31.4074 209.452 32.0279 210.648 33.254C211.845 34.4802 212.45 36.2087 212.45 38.3951C212.45 39.9019 211.993 41.7338 211.062 43.8906C210.131 46.0475 208.994 48.0566 207.62 49.9032C205.02 53.1976 202.316 55.7533 199.495 57.5556C196.688 59.3727 193.984 60.2739 191.369 60.2739C190.823 60.2739 190.261 60.2443 189.671 60.1705C189.094 60.0966 188.311 59.9341 187.351 59.6534V59.7125ZM192.788 53.6408C194.088 53.7146 195.55 53.0942 197.16 51.7941C198.771 50.4941 200.706 48.3964 202.966 45.5304C203.646 44.7031 204.296 43.5951 204.916 42.1917C205.537 40.7882 205.847 39.7394 205.847 39.0598C205.847 38.7939 205.744 38.5132 205.537 38.2325C205.33 37.9518 205.123 37.8189 204.916 37.8189C204.237 37.8189 203.07 38.5576 201.415 40.0349C199.775 41.5122 198.091 43.344 196.378 45.5304C196.038 45.944 195.728 46.3134 195.447 46.6679C195.166 47.0077 194.841 47.4509 194.472 47.9975C194.088 48.5441 193.615 49.268 193.039 50.1543C192.463 51.0407 191.68 52.2078 190.719 53.6555H192.773L192.788 53.6408Z" fill="white"/>
<path d="M225.79 41.9258C227.77 39.8723 229.292 38.3655 230.311 37.4052C231.345 36.445 232.409 35.5882 233.502 34.8347C235.083 33.7415 236.767 32.8552 238.584 32.1608C240.401 31.4813 241.996 31.1267 243.356 31.1267C244.316 31.1267 245.158 31.4222 245.882 31.9984C246.606 32.5745 246.96 33.254 246.96 34.0075C246.96 34.6279 246.679 35.1302 246.133 35.5438C246 35.6768 245.882 35.7802 245.778 35.8541C245.675 35.928 245.468 36.0018 245.158 36.1052C244.848 36.2086 244.419 36.3416 243.873 36.5189C243.326 36.6962 242.528 36.9473 241.509 37.2871C236.368 40.3008 231.522 44.7622 226.972 50.6419C222.422 56.5363 218.389 63.5978 214.903 71.8116C213.943 73.9389 212.716 75.0025 211.21 75.0025C210.116 75.0025 209.215 74.6776 208.536 74.0276C207.856 73.3775 207.501 72.5355 207.501 71.5161C207.501 71.0434 207.634 70.4525 207.915 69.7729C208.181 69.0934 208.875 67.6899 209.969 65.5626C211.549 62.0023 212.968 58.5454 214.238 55.1772C215.509 51.8237 216.587 48.7657 217.473 46.0327C218.36 43.2997 219.01 40.936 219.423 38.9417C219.837 36.9621 219.97 35.5143 219.837 34.6279C219.837 33.1949 220.413 32.4711 221.58 32.4711C222.614 32.4711 223.589 33.2098 224.505 34.6871C225.436 36.1644 225.894 37.7155 225.894 39.3701V40.5076C225.894 40.9213 225.864 41.394 225.79 41.9406V41.9258Z" fill="white"/>
<path d="M257.744 61.7659C256.238 63.5534 254.997 64.9421 254.051 65.9319C253.091 66.9217 251.924 68.0444 250.55 69.2706C249.324 70.3638 248.201 71.2798 247.211 71.9889C246.222 72.7127 245.306 73.2889 244.493 73.7321C243.666 74.1753 242.898 74.4855 242.174 74.6628C241.45 74.84 240.682 74.9139 239.854 74.9139C237.934 74.9139 236.427 74.382 235.334 73.3184C234.241 72.2547 233.694 70.7627 233.694 68.8422C233.694 64.8683 236.191 59.3579 241.199 52.2964C243.326 49.2089 245.571 46.3872 247.935 43.8167C250.299 41.2462 252.648 39.0303 254.982 37.1837C257.316 35.3371 259.517 33.8745 261.615 32.8108C263.713 31.7472 265.545 31.2153 267.11 31.2153C268.278 31.2153 269.297 31.6586 270.198 32.5449C271.085 33.4313 271.528 34.4654 271.528 35.6324C271.528 37.8927 270.7 40.286 269.061 42.827C270.774 43.3736 271.631 44.0974 271.631 44.9838C271.631 45.3974 271.572 45.7225 271.483 45.9588C271.38 46.1952 270.981 46.8304 270.302 47.8645C270.169 48.0714 270.065 48.2781 269.991 48.485C269.917 48.6918 269.814 48.8987 269.681 49.1055C267.214 55.7534 264.762 62.3569 262.339 68.9456C259.901 75.5196 257.464 82.1379 254.997 88.7858C254.11 91.1199 253.091 93.4984 251.968 95.9211C250.845 98.3587 249.619 100.722 248.319 103.012C247.019 105.302 245.66 107.488 244.257 109.542C242.853 111.595 241.494 113.412 240.194 114.993C237.727 117.874 235.511 119.927 233.561 121.153C231.611 122.38 229.572 123 227.445 123C225.318 123 223.545 122.217 222.304 120.636C221.078 119.056 220.457 116.869 220.457 114.062C220.457 110.709 221.373 106.986 223.176 102.909C224.993 98.8314 227.445 94.9461 230.518 91.238C233.251 88.0175 235.541 85.6687 237.358 84.1914C239.175 82.7141 240.667 81.9754 241.834 81.9754C243.267 81.9754 243.991 82.5516 243.991 83.7186C243.991 83.9254 243.976 84.0879 243.932 84.2356C243.902 84.3686 243.754 84.5902 243.518 84.9004C243.282 85.2107 242.912 85.6243 242.44 86.1266C241.952 86.6437 241.273 87.3823 240.386 88.3426C239.426 89.3767 238.259 90.8244 236.885 92.7153C235.511 94.5915 234.137 96.6302 232.778 98.8314C230.798 102.126 229.336 104.947 228.405 107.311C227.475 109.675 227.017 111.95 227.017 114.151C227.017 116.131 227.386 117.135 228.139 117.135C228.479 117.135 229.085 116.854 229.942 116.308C230.799 115.761 231.596 115.141 232.35 114.461C234.329 112.615 236.442 109.852 238.672 106.188C240.903 102.525 243.488 97.5313 246.428 91.238C247.521 88.9039 248.541 86.688 249.457 84.5607C250.388 82.4334 251.274 80.247 252.131 77.9867C252.988 75.7264 253.859 73.2889 254.745 70.6888C255.632 68.0888 256.636 65.1047 257.73 61.7512L257.744 61.7659ZM261.955 47.1702C260.729 46.1361 260.108 45.1168 260.108 44.0826C260.108 43.669 260.212 43.2996 260.418 42.9451C260.625 42.6053 261.069 42.1179 261.748 41.5122C262.428 40.9656 262.841 40.5519 262.974 40.286C263.107 40.0201 263.181 39.6359 263.181 39.1632C262.014 39.7837 260.64 40.7882 259.074 42.1917C257.493 43.5951 255.883 45.1907 254.243 46.9782C252.603 48.7657 250.979 50.6566 249.368 52.6805C247.758 54.7044 246.325 56.6544 245.055 58.5306C243.784 60.4215 242.765 62.1353 241.967 63.6717C241.184 65.208 240.785 66.4342 240.785 67.3205C240.785 67.8671 241.021 68.1478 241.509 68.1478C242.129 68.1478 243.592 67.0842 245.926 64.9569C247.093 63.9228 248.172 62.9478 249.161 62.0319C250.151 61.1012 251.141 60.0965 252.146 59.0033C253.135 57.9101 254.184 56.7135 255.277 55.4135C256.371 54.1135 257.612 52.5771 258.971 50.7896C259.178 50.5827 259.547 50.1396 260.108 49.46C260.655 48.7805 261.275 48.027 261.955 47.1997V47.1702Z" fill="white"/>
<path d="M284.055 31.4518C285.222 31.3779 286.315 31.8063 287.35 32.737C288.384 33.6677 288.886 34.6427 288.886 35.6621C288.886 36.2087 288.753 36.8144 288.472 37.4644C288.192 38.1144 287.689 39.0303 286.936 40.1826C286.448 41.0099 285.769 42.3099 284.882 44.0827C283.996 45.8702 283.051 47.776 282.061 49.8442C281.071 51.8976 280.14 53.9067 279.284 55.8567C278.427 57.8068 277.791 59.3284 277.378 60.4364C275.945 64.3365 275.221 67.8081 275.221 70.8218C275.221 71.0286 275.236 71.2207 275.28 71.3832C275.31 71.5604 275.398 72.0184 275.531 72.7718C275.605 72.9048 275.635 73.1117 275.635 73.3924C275.635 73.806 275.413 74.1753 274.97 74.5298C274.527 74.8696 274.024 75.0469 273.478 75.0469C272.104 75.0469 270.937 74.3821 269.977 73.0377C269.016 71.6934 268.544 70.0388 268.544 68.0592C268.544 64.4989 269.637 60.1114 271.838 54.9113C272.119 54.2318 272.547 53.2272 273.123 51.9271C273.699 50.6271 274.29 49.3123 274.866 47.968C275.442 46.6384 275.989 45.4122 276.506 44.319C277.023 43.2258 277.378 42.502 277.585 42.1622C279.771 38.1144 281.041 35.6178 281.381 34.6575C281.928 32.6779 282.814 31.6143 284.055 31.4666V31.4518ZM302.448 11.6117C303.201 11.6117 303.969 12.0105 304.767 12.7935C305.565 13.5765 305.949 14.389 305.949 15.2015C305.949 17.1958 303.954 19.2049 299.995 21.2584C298.355 22.0857 296.804 22.7504 295.371 23.2675C293.938 23.7845 292.875 24.0357 292.18 24.0357C291.22 24.0357 290.289 23.7255 289.403 23.105C288.517 22.4845 288.059 21.805 288.059 21.0515C288.059 20.7118 288.088 20.4311 288.162 20.2243C288.221 20.0174 288.428 19.7959 288.783 19.5595C289.122 19.3232 289.639 19.0425 290.319 18.7323C290.999 18.422 292.003 17.9641 293.303 17.3436C295.43 16.0436 296.922 15.0685 297.779 14.4185C298.636 13.7685 299.301 13.1628 299.789 12.6162C300.409 11.9367 301.295 11.5821 302.462 11.5821L302.448 11.6117Z" fill="white"/>
<path d="M311.489 62.0762C308.135 66.1831 304.989 69.3592 302.078 71.5752C299.168 73.8059 296.642 74.9139 294.529 74.9139C292.195 74.9139 290.319 74.0571 288.871 72.3434C287.424 70.6298 286.714 68.4433 286.714 65.7694C286.714 61.5887 289.152 56.0783 294.012 49.2236C296.066 46.4168 298.149 43.8463 300.276 41.5122C302.403 39.1781 304.486 37.1984 306.54 35.5438C308.593 33.904 310.558 32.6188 312.449 31.6881C314.34 30.7574 316.068 30.2994 317.634 30.2994C319.821 30.2994 321.682 31.0825 323.189 32.6632C324.696 34.2439 325.449 36.1643 325.449 38.4246C325.449 39.5917 324.829 41.2315 323.603 43.3588C323.809 43.9054 323.913 44.2452 323.913 44.3929C323.913 44.7327 323.78 45.1759 323.499 45.7225C322.82 47.3623 322.184 49.1055 321.593 50.9668C321.017 52.8135 320.515 54.6158 320.101 56.359C319.688 58.1022 319.363 59.7716 319.126 61.3375C318.89 62.9182 318.772 64.2922 318.772 65.4445C318.772 66.4047 318.86 67.2911 319.023 68.1184C319.2 68.9457 319.658 70.3047 320.412 72.2252C320.545 72.7718 320.618 73.215 320.618 73.5548C320.618 74.1753 320.323 74.7514 319.747 75.298C319.171 75.8446 318.535 76.1253 317.841 76.1253C316.748 76.1253 315.655 75.5935 314.547 74.5298C313.454 73.4661 312.626 72.1514 312.08 70.5706C311.799 69.8172 311.622 69.049 311.518 68.2513C311.415 67.4535 311.371 66.4933 311.371 65.3262V63.9966C311.371 63.45 311.4 62.8 311.474 62.0466L311.489 62.0762ZM318.993 39.5621C318.993 38.0553 318.373 37.3018 317.147 37.3018C314.547 37.3018 311.016 39.8428 306.555 44.91C304.915 46.8304 303.349 48.7953 301.871 50.8192C300.394 52.8431 299.109 54.8079 298.016 56.7284C296.922 58.6488 296.051 60.392 295.401 61.9727C294.751 63.5535 294.426 64.8092 294.426 65.7694C294.426 66.8035 294.943 67.3058 295.962 67.3058C296.302 67.3058 296.849 67.0694 297.602 66.5819C298.355 66.1092 299.212 65.4592 300.172 64.6319C301.133 63.8046 302.137 62.8886 303.201 61.8545C304.265 60.8204 305.269 59.7716 306.23 58.6636C307.736 56.8761 309.14 55.1033 310.44 53.3158C311.74 51.5283 312.877 49.7555 313.837 47.968C314.044 47.5543 314.236 47.2145 314.399 46.9338C314.576 46.6532 314.724 46.3134 314.857 45.8997C314.99 45.4861 315.197 44.9543 315.477 44.3043C315.743 43.6543 316.098 42.7088 316.511 41.4826C316.777 40.8031 317.058 40.3303 317.339 40.0939C317.605 39.8576 318.166 39.6655 318.979 39.5326L318.993 39.5621Z" fill="white"/>
<path d="M373.461 63.1989C372.427 64.1592 371.541 64.9569 370.787 65.607C370.034 66.257 369.325 66.8774 368.675 67.4536C368.025 68.0297 367.36 68.5763 366.666 69.0934C365.986 69.6104 365.233 70.2014 364.406 70.8957C362.278 72.4764 360.609 73.5549 359.368 74.131C358.142 74.7071 356.871 75.0026 355.571 75.0026C353.651 75.0026 352.07 74.3378 350.844 72.9935C349.618 71.6491 348.997 69.965 348.997 67.9115C348.997 61.8103 353.858 54.0102 363.593 44.4816C367.7 40.3747 371.467 37.1837 374.894 34.9234C378.322 32.6631 381.025 31.5256 383.02 31.5256C384.733 31.5256 386.181 32.0575 387.392 33.1211C388.589 34.1848 389.195 35.47 389.195 36.9769C389.195 39.7247 388.161 41.0837 386.107 41.0837C385.62 41.0837 385.324 40.9656 385.176 40.7292C385.043 40.4928 384.896 39.9611 384.763 39.1338C384.63 38.4542 384.083 38.0996 383.123 38.0996C380.996 38.0996 376.785 41.2462 370.477 47.5543C368.631 49.4009 366.843 51.3215 365.129 53.3158C363.416 55.3102 361.909 57.1715 360.609 58.9147C359.309 60.658 358.26 62.224 357.477 63.5978C356.694 64.9717 356.295 65.991 356.295 66.6854C356.295 67.4388 356.664 67.8081 357.433 67.8081C358.053 67.8081 359.087 67.3058 360.565 66.316C362.042 65.3262 363.711 64.0557 365.602 62.5194C367.493 60.983 369.458 59.2693 371.511 57.3784C373.565 55.4874 375.485 53.6261 377.273 51.7794C379.06 49.9328 380.597 48.2044 381.897 46.5941C383.197 44.9839 384.024 43.7281 384.364 42.8417C384.63 42.2951 384.896 41.8963 385.132 41.6599C385.368 41.4235 385.767 41.3054 386.314 41.3054C387.274 41.3054 388.16 41.7486 388.988 42.635C389.815 43.5213 390.214 44.5258 390.214 45.619C390.214 46.0327 390.096 46.5498 389.859 47.1555C389.623 47.776 389.224 48.6475 388.678 49.7703C388.131 50.9078 387.377 52.326 386.417 54.0397C385.457 55.7533 384.26 57.8363 382.828 60.3034C382.34 60.983 381.66 62.2239 380.774 63.9967C379.888 65.7694 378.868 67.8672 377.746 70.2604C376.608 72.6536 375.456 75.2242 374.244 77.9719C373.048 80.7049 371.895 83.3788 370.802 85.9937C369.709 88.5937 368.734 90.9722 367.877 93.1291C367.02 95.2859 366.385 97.0144 365.971 98.3144C365.632 99.1417 365.321 100.072 365.041 101.136C364.76 102.2 364.509 103.263 364.273 104.327C364.036 105.391 363.844 106.395 363.711 107.355C363.578 108.316 363.475 109.143 363.401 109.823C363.401 112.009 362.618 113.117 361.037 113.117C360.21 113.117 359.397 112.57 358.57 111.477C358.23 111.063 358.009 110.532 357.905 109.882C357.802 109.232 357.758 108.316 357.758 107.163C357.758 105.11 358.112 102.554 358.836 99.511C359.56 96.4678 360.594 93.0404 361.968 89.229C363.342 85.4323 364.997 81.3107 366.947 76.8935C368.897 72.4764 371.068 67.8967 373.476 63.1694L373.461 63.1989Z" fill="white"/>
<path d="M411.694 57.5556C410.187 59.4761 409.005 60.9682 408.148 62.0319C407.292 63.0955 406.612 63.9375 406.095 64.558C405.578 65.1785 405.135 65.6808 404.765 66.0944C404.381 66.5081 403.923 67.0251 403.377 67.6308C402.003 69.0638 400.806 70.2899 399.787 71.2797C398.753 72.2695 397.837 73.0377 397.01 73.5843C396.182 74.1309 395.414 74.5298 394.705 74.7662C393.981 75.0025 393.243 75.1207 392.489 75.1207C388.796 75.1207 386.934 72.7865 386.934 68.133C386.934 67.0989 387.008 66.0501 387.141 64.9421C387.274 63.8489 387.511 62.667 387.865 61.3965C388.205 60.1261 388.663 58.6931 389.254 57.0829C389.83 55.4726 390.539 53.6112 391.366 51.4839C391.839 50.3169 392.548 48.7066 393.479 46.6531C394.409 44.5997 395.384 42.561 396.404 40.5371C397.438 38.5132 398.354 36.6961 399.181 35.0858C400.008 33.4756 400.555 32.5301 400.821 32.2642C401.441 31.5847 402.254 31.2301 403.288 31.2301C404.514 31.2301 405.519 31.5552 406.272 32.2052C407.026 32.8552 407.395 33.7267 407.395 34.8199C407.395 35.1597 407.365 35.4257 407.292 35.5882C407.218 35.7654 407.085 36.0166 406.878 36.3564C406.125 37.5234 405.282 38.9416 404.366 40.6257C403.451 42.3098 402.52 44.0974 401.589 46.0179C400.658 47.9384 399.757 49.8884 398.871 51.8827C397.985 53.8771 397.216 55.7385 396.552 57.4818C395.902 59.225 395.37 60.7761 394.956 62.1057C394.542 63.4353 394.336 64.4103 394.336 65.0307C394.336 65.9171 394.646 66.3603 395.266 66.3603C395.547 66.3603 395.842 66.2569 396.197 66.0501C396.537 65.8433 396.965 65.5183 397.482 65.0751C397.999 64.6319 398.62 63.9966 399.329 63.1693C400.053 62.342 400.983 61.2489 402.151 59.875C403.657 58.1613 405.164 56.3294 406.671 54.3794C408.178 52.4293 409.596 50.5236 410.941 48.677C412.27 46.8304 413.511 45.1019 414.634 43.4917C415.771 41.8814 416.672 40.4927 417.352 39.3257C418.386 37.5381 419.199 36.1643 419.819 35.1598C420.44 34.17 420.927 33.4165 421.311 32.8995C421.695 32.3824 421.991 32.0722 422.242 31.9688C422.478 31.8653 422.774 31.8211 423.114 31.8211C423.66 31.8211 424.221 31.954 424.812 32.2347C425.388 32.5153 425.92 32.87 426.408 33.3131C426.881 33.7563 427.279 34.2585 427.59 34.8051C427.9 35.3517 428.048 35.8689 428.048 36.3416C428.048 36.9621 427.87 37.6121 427.531 38.2916C427.191 38.9712 426.467 40.1826 425.374 41.8815C424.413 43.3144 423.512 44.9985 422.655 46.919C421.799 48.8395 421.06 50.7896 420.44 52.7692C419.819 54.7635 419.332 56.6988 418.947 58.5749C418.563 60.4511 418.386 62.15 418.386 63.6569C418.386 65.1637 418.593 66.5376 419.007 67.5569C419.42 68.5911 420.203 69.8468 421.37 71.3536C422.05 72.107 422.404 72.757 422.404 73.3036C422.404 73.924 422.109 74.4707 421.533 74.9434C420.957 75.4162 420.277 75.6673 419.524 75.6673C418.224 75.6673 416.687 74.707 414.9 72.7866C413.806 71.6195 412.95 70.0979 412.329 68.207C411.709 66.316 411.398 64.3217 411.398 62.1943C411.398 61.0273 411.502 59.4613 411.709 57.467L411.694 57.5556Z" fill="white"/>
<path d="M437.488 59.7125C437 60.6728 436.675 61.5148 436.513 62.2239C436.335 62.9477 436.261 63.7898 436.261 64.7353C436.261 66.1683 436.468 67.1138 436.882 67.557C437.295 68.0002 438.152 68.2218 439.452 68.2218C440.619 68.2218 441.713 68.1035 442.747 67.8672C443.781 67.6308 444.8 67.2468 445.834 66.7297C446.868 66.2126 447.947 65.5331 449.07 64.6762C450.207 63.8194 451.448 62.741 452.822 61.4409C453.575 60.6875 454.299 60.3034 454.979 60.3034C455.452 60.3034 455.91 60.5103 456.308 60.9239C456.722 61.3376 456.929 61.8103 456.929 62.3569C456.929 63.6569 456.323 65.0456 455.126 66.5229C453.93 68.0002 452.423 69.3445 450.606 70.5854C448.789 71.8116 446.824 72.8456 444.697 73.6729C442.57 74.5002 440.546 74.8991 438.64 74.8991C437.34 74.8991 436.099 74.6184 434.947 74.0718C433.78 73.5252 432.731 72.7719 431.815 71.8116C430.884 70.8514 430.16 69.7729 429.599 68.5763C429.052 67.3797 428.771 66.0944 428.771 64.7205C428.771 62.1943 429.421 59.4761 430.721 56.5954C432.021 53.7146 434.046 50.435 436.779 46.727C438.492 44.3929 440.235 42.2951 442.023 40.4042C443.81 38.5133 445.524 36.903 447.164 35.5734C448.804 34.2438 450.37 33.2098 451.847 32.4859C453.324 31.762 454.609 31.4074 455.703 31.4074C457.889 31.4074 459.588 32.0279 460.785 33.254C461.981 34.4802 462.587 36.2087 462.587 38.3951C462.587 39.9019 462.129 41.7338 461.198 43.8906C460.267 46.0475 459.13 48.0566 457.756 49.9032C455.156 53.1976 452.453 55.7533 449.631 57.5556C446.824 59.3727 444.121 60.2739 441.506 60.2739C440.959 60.2739 440.398 60.2443 439.807 60.1705C439.231 60.0966 438.448 59.9341 437.488 59.6534V59.7125ZM442.924 53.6408C444.224 53.7146 445.687 53.0942 447.297 51.7941C448.907 50.4941 450.842 48.3964 453.103 45.5304C453.782 44.7031 454.432 43.5951 455.053 42.1917C455.673 40.7882 455.983 39.7394 455.983 39.0598C455.983 38.7939 455.88 38.5132 455.673 38.2325C455.466 37.9518 455.26 37.8189 455.053 37.8189C454.373 37.8189 453.206 38.5576 451.552 40.0349C449.912 41.5122 448.228 43.344 446.514 45.5304C446.174 45.944 445.864 46.3134 445.583 46.6679C445.302 47.0077 444.977 47.4509 444.608 47.9975C444.224 48.5441 443.751 49.268 443.175 50.1543C442.599 51.0407 441.816 52.2078 440.856 53.6555H442.909L442.924 53.6408Z" fill="white"/>
<path d="M496.166 62.0761C494.659 63.6568 493.477 64.8978 492.62 65.8284C491.764 66.7591 491.084 67.483 490.567 68.0444C490.05 68.6058 489.695 69.0195 489.488 69.3297C489.282 69.64 489.075 69.9354 488.868 70.2013C488.322 70.8808 487.908 71.5309 487.642 72.1513C486.888 73.3184 486.253 74.1161 485.736 74.5593C485.219 75.0025 484.584 75.2241 483.831 75.2241C482.663 75.2241 481.659 74.6627 480.802 73.5252C479.945 72.3877 479.517 71.0434 479.517 69.4626C479.517 69.049 479.635 68.4729 479.871 67.7194C480.108 66.966 480.61 65.7546 481.363 64.0705C482.117 62.3863 483.21 60.0966 484.658 57.1863C486.091 54.276 488.011 50.4202 490.419 45.619C491.453 43.5656 492.236 41.9554 492.783 40.7883C493.329 39.6212 493.743 38.661 494.009 37.9075C494.29 37.1541 494.467 36.5336 494.571 36.0609C494.674 35.5882 494.762 34.9677 494.822 34.2143C494.895 33.4609 495.176 32.8404 495.693 32.3677C496.21 31.8949 496.845 31.6438 497.599 31.6438C498.219 31.6438 498.81 31.7915 499.401 32.1018C499.977 32.412 500.509 32.7813 500.997 33.2392C501.484 33.6972 501.868 34.1995 502.179 34.7757C502.489 35.3518 502.637 35.9279 502.637 36.4745C502.637 36.9472 502.592 37.4348 502.489 37.9075C502.385 38.395 502.149 39.0303 501.765 39.8576C501.381 40.6849 500.819 41.778 500.066 43.1519C499.313 44.5258 498.279 46.3429 496.979 48.6032C496.432 49.6964 495.826 50.8339 495.176 52.0009C494.526 53.168 493.817 54.3646 493.064 55.5908C495.117 53.6703 496.919 52.001 498.456 50.5532C499.992 49.1202 501.425 47.7463 502.725 46.4463C504.025 45.1463 505.281 43.861 506.477 42.5906C507.674 41.3201 508.959 39.9018 510.333 38.3211C511.559 36.9472 512.549 35.8688 513.258 35.0858C513.967 34.3029 514.558 33.712 515.001 33.3426C515.445 32.9733 515.799 32.7222 516.08 32.6188C516.346 32.5154 516.656 32.4711 517.011 32.4711C518.178 32.4711 519.094 33.0028 519.788 34.0665C520.482 35.1302 520.822 36.5484 520.822 38.3359C520.822 39.0893 520.719 39.828 520.512 40.5519C520.305 41.2757 519.936 42.3246 519.374 43.6837C517.395 48.4111 515.917 52.5918 514.957 56.226C513.997 59.8602 513.524 63.1841 513.524 66.1978C513.524 66.8182 513.539 67.3354 513.583 67.7342C513.613 68.1479 513.701 68.591 513.834 69.0637C513.967 69.5512 514.174 70.0683 514.455 70.6592C514.721 71.2354 515.134 71.974 515.681 72.8752C516.228 73.8354 516.508 74.6185 516.508 75.2389C516.508 75.7855 516.257 76.2287 515.74 76.5684C515.223 76.9082 514.588 77.0856 513.834 77.0856C513.155 77.0856 512.402 76.8787 511.574 76.465C510.747 76.0514 509.964 75.5048 509.21 74.8252C508.25 73.865 507.526 72.6831 507.054 71.2797C506.566 69.8763 506.33 68.1183 506.33 65.991C506.33 64.691 506.359 63.5091 506.433 62.4455C506.507 61.3818 506.67 60.2147 506.95 58.9443C507.216 57.6738 507.585 56.1817 508.029 54.468C508.472 52.7543 509.107 50.5237 509.934 47.7907L507.674 50.0509L496.166 62.0761Z" fill="white"/>
<path d="M537.885 38.3359C537.885 38.3359 537.9 38.1882 537.944 38.0848C537.974 37.9814 538.136 37.5826 538.402 36.903C538.609 36.2825 539.096 35.5734 539.894 34.7461C540.677 33.9188 541.489 33.2392 542.302 32.6926C543.469 31.9392 544.799 31.5552 546.306 31.5552C547.532 31.5552 548.684 31.8506 549.748 32.4267C550.811 33.0029 551.712 33.8154 552.466 34.8347C553.219 35.8688 553.825 37.0654 554.268 38.4246C554.711 39.7985 554.933 41.3053 554.933 42.9451C554.933 44.1713 554.756 45.6191 554.416 47.2589C554.076 48.8987 553.588 50.6123 552.983 52.3999C552.362 54.1874 551.624 55.9454 550.767 57.6886C549.91 59.4318 549.009 61.0273 548.049 62.4603C545.449 66.4342 542.642 69.5365 539.613 71.7672C536.6 73.998 533.66 75.1059 530.779 75.1059C528.179 75.1059 526.066 74.2048 524.456 72.3877C522.846 70.5706 522.048 68.2218 522.048 65.3558C522.048 58.8409 524.855 51.9566 530.484 44.7031C531.104 43.8758 531.651 43.1962 532.123 42.6496C532.596 42.103 533.098 41.6008 533.615 41.1576C534.132 40.7144 534.709 40.286 535.359 39.8724C536.009 39.4587 536.851 38.9416 537.87 38.3359H537.885ZM543.026 40.286C542.819 40.8326 542.612 41.2462 542.405 41.5122C542.199 41.7928 541.829 42.1621 541.268 42.6496C539.894 43.8758 538.786 45.0281 537.929 46.0918C537.072 47.1554 536.068 48.6771 534.901 50.6714C533.261 53.5522 532.005 56.1817 531.148 58.5897C530.292 60.983 529.863 63.0512 529.863 64.7501C529.863 65.9171 530.07 66.8478 530.484 67.5274C530.897 68.2069 531.444 68.5615 532.123 68.5615C533.084 68.5615 534.384 67.9262 536.023 66.6557C537.663 65.3853 539.274 63.7307 540.854 61.6772C542.908 59.0033 544.533 56.1227 545.729 53.0499C546.926 49.9623 547.532 47.052 547.532 44.319C547.532 40.0053 546.704 37.8484 545.064 37.8484C544.725 37.8484 544.459 37.9518 544.296 38.1587C544.119 38.3655 543.764 38.986 543.218 40.0053C543.144 40.0053 543.085 40.1087 543.011 40.3156L543.026 40.286Z" fill="white"/>
<path d="M576.723 39.6655H576.206C575.999 39.6655 575.807 39.4882 575.645 39.1484C575.467 38.8087 575.393 38.4689 575.393 38.1144C575.393 37.9076 575.423 37.7007 575.497 37.4939V37.0803C575.497 36.4598 575.216 36.1496 574.67 36.1496C574.33 36.1496 573.946 36.6075 573.547 37.5382C573.133 38.4689 572.779 39.6655 572.468 41.1281C572.158 42.6054 571.907 44.2304 571.7 46.0031C571.493 47.7907 571.39 49.5339 571.39 51.2475C571.39 52.2816 571.434 53.4635 571.538 54.7931C571.641 56.1226 571.789 57.467 571.996 58.7966C572.202 60.1262 572.424 61.4114 572.661 62.6523C572.897 63.8785 573.118 64.9125 573.325 65.7398C573.665 66.7739 573.931 67.7047 574.093 68.5615C574.256 69.4184 574.345 70.0536 574.345 70.4672C574.345 71.8411 573.783 72.9344 572.646 73.7617C571.523 74.5889 569.957 74.9877 567.963 74.9877C565.702 74.9877 563.383 74.5742 561.019 73.7617C558.656 72.9344 556.588 71.8411 554.8 70.4672C552.407 68.4876 551.21 66.124 551.21 63.3762C551.21 62.4159 551.417 61.3671 551.831 60.2443C552.244 59.1216 552.761 58.176 553.367 57.4226C554.046 56.7431 554.977 56.3886 556.144 56.3886C556.617 56.3886 557.09 56.6101 557.533 57.0533C557.976 57.4965 558.198 57.9988 558.198 58.5454C558.198 58.8261 558.094 59.1954 557.888 59.6829C557.607 60.4364 557.474 61.0864 557.474 61.633C557.474 62.4603 557.71 63.258 558.198 64.041C558.67 64.824 559.291 65.5331 560.044 66.1535C560.798 66.774 561.684 67.2467 562.718 67.5865C563.752 67.9262 564.801 68.1036 565.909 68.1036C566.663 68.1036 567.047 67.8672 567.047 67.3797C567.047 67.2467 566.84 66.5967 566.426 65.4297C566.087 64.6024 565.762 63.4944 565.451 62.0909C565.141 60.6875 564.875 59.1807 564.624 57.5704C564.388 55.9602 564.181 54.3794 564.004 52.843C563.826 51.3066 563.752 50.0214 563.752 48.9873C563.752 46.4611 564.048 43.9201 564.624 41.3792C565.2 38.8382 565.983 36.5189 566.943 34.3916C568.11 32.1313 569.277 30.5063 570.445 29.5165C571.612 28.5267 572.971 28.0244 574.551 28.0244C576.339 28.0244 577.802 28.6744 578.969 29.9745C580.136 31.2745 580.712 32.8847 580.712 34.8052C580.712 36.1791 580.268 37.3462 579.382 38.3065C579.042 38.6462 578.658 38.9564 578.26 39.2371C577.846 39.5178 577.58 39.6508 577.432 39.6508H576.708L576.723 39.6655Z" fill="white"/>
<path d="M626.36 57.5556C624.854 59.4761 623.672 60.9682 622.815 62.0319C621.958 63.0955 621.278 63.9375 620.761 64.558C620.244 65.1785 619.801 65.6808 619.432 66.0944C619.048 66.5081 618.59 67.0251 618.043 67.6308C616.669 69.0638 615.473 70.2899 614.453 71.2797C613.419 72.2695 612.503 73.0377 611.676 73.5843C610.849 74.1309 610.081 74.5298 609.371 74.7662C608.648 75.0025 607.909 75.1207 607.155 75.1207C603.462 75.1207 601.601 72.7865 601.601 68.133C601.601 67.0989 601.675 66.0501 601.808 64.9421C601.941 63.8489 602.177 62.667 602.532 61.3965C602.871 60.1261 603.329 58.6931 603.92 57.0829C604.496 55.4726 605.205 53.6112 606.033 51.4839C606.505 50.3169 607.215 48.7066 608.145 46.6531C609.076 44.5997 610.051 42.561 611.07 40.5371C612.104 38.5132 613.02 36.6961 613.848 35.0858C614.675 33.4756 615.222 32.5301 615.487 32.2642C616.108 31.5847 616.921 31.2301 617.955 31.2301C619.181 31.2301 620.185 31.5552 620.939 32.2052C621.692 32.8552 622.061 33.7267 622.061 34.8199C622.061 35.1597 622.032 35.4257 621.958 35.5882C621.884 35.7654 621.751 36.0166 621.544 36.3564C620.791 37.5234 619.949 38.9416 619.033 40.6257C618.117 42.3098 617.186 44.0974 616.256 46.0179C615.325 47.9384 614.424 49.8884 613.537 51.8827C612.651 53.8771 611.883 55.7385 611.218 57.4818C610.568 59.225 610.036 60.7761 609.623 62.1057C609.209 63.4353 609.002 64.4103 609.002 65.0307C609.002 65.9171 609.312 66.3603 609.933 66.3603C610.214 66.3603 610.509 66.2569 610.864 66.0501C611.203 65.8433 611.632 65.5183 612.149 65.0751C612.666 64.6319 613.286 63.9966 613.995 63.1693C614.719 62.342 615.65 61.2489 616.817 59.875C618.324 58.1613 619.831 56.3294 621.338 54.3794C622.844 52.4293 624.263 50.5236 625.607 48.677C626.937 46.8304 628.177 45.1019 629.3 43.4917C630.438 41.8814 631.339 40.4927 632.018 39.3257C633.052 37.5381 633.865 36.1643 634.486 35.1598C635.106 34.17 635.594 33.4165 635.978 32.8995C636.362 32.3824 636.657 32.0722 636.908 31.9688C637.145 31.8653 637.44 31.8211 637.78 31.8211C638.326 31.8211 638.888 31.954 639.479 32.2347C640.055 32.5153 640.587 32.87 641.074 33.3131C641.547 33.7563 641.946 34.2585 642.256 34.8051C642.566 35.3517 642.714 35.8689 642.714 36.3416C642.714 36.9621 642.537 37.6121 642.197 38.2916C641.857 38.9712 641.133 40.1826 640.04 41.8815C639.08 43.3144 638.179 44.9985 637.322 46.919C636.465 48.8395 635.727 50.7896 635.106 52.7692C634.486 54.7635 633.998 56.6988 633.614 58.5749C633.23 60.4511 633.053 62.15 633.053 63.6569C633.053 65.1637 633.259 66.5376 633.673 67.5569C634.087 68.5911 634.87 69.8468 636.037 71.3536C636.716 72.107 637.071 72.757 637.071 73.3036C637.071 73.924 636.775 74.4707 636.199 74.9434C635.623 75.4162 634.944 75.6673 634.19 75.6673C632.89 75.6673 631.354 74.707 629.566 72.7866C628.473 71.6195 627.616 70.0979 626.996 68.207C626.375 66.316 626.065 64.3217 626.065 62.1943C626.065 61.0273 626.168 59.4613 626.375 57.467L626.36 57.5556Z" fill="white"/>
<path d="M657.502 62.0761C655.995 63.6568 654.813 64.8978 653.956 65.8284C653.1 66.7591 652.42 67.483 651.903 68.0444C651.386 68.6058 651.031 69.0195 650.825 69.3297C650.618 69.64 650.411 69.9354 650.204 70.2013C649.657 70.8808 649.244 71.5309 648.978 72.1513C648.225 73.3184 647.589 74.1161 647.072 74.5593C646.555 75.0025 645.92 75.2241 645.166 75.2241C643.999 75.2241 642.995 74.6627 642.138 73.5252C641.281 72.3877 640.853 71.0434 640.853 69.4626C640.853 69.049 640.971 68.4729 641.207 67.7194C641.444 66.966 641.946 65.7546 642.699 64.0705C643.453 62.3863 644.546 60.0966 645.994 57.1863C647.427 54.276 649.347 50.4202 651.755 45.619C652.789 43.5656 653.572 41.9554 654.119 40.7883C654.666 39.6212 655.079 38.661 655.345 37.9075C655.626 37.1541 655.803 36.5336 655.906 36.0609C656.01 35.5882 656.098 34.9677 656.158 34.2143C656.231 33.4609 656.512 32.8404 657.029 32.3677C657.546 31.8949 658.181 31.6438 658.935 31.6438C659.555 31.6438 660.146 31.7915 660.737 32.1018C661.313 32.412 661.845 32.7813 662.333 33.2392C662.82 33.6972 663.204 34.1995 663.515 34.7757C663.825 35.3518 663.972 35.9279 663.972 36.4745C663.972 36.9472 663.928 37.4348 663.825 37.9075C663.721 38.395 663.485 39.0303 663.101 39.8576C662.717 40.6849 662.155 41.778 661.402 43.1519C660.648 44.5258 659.614 46.3429 658.314 48.6032C657.768 49.6964 657.162 50.8339 656.512 52.0009C655.862 53.168 655.153 54.3646 654.4 55.5908C656.453 53.6703 658.255 52.001 659.792 50.5532C661.328 49.1202 662.761 47.7463 664.061 46.4463C665.361 45.1463 666.617 43.861 667.814 42.5906C669.01 41.3201 670.295 39.9018 671.669 38.3211C672.895 36.9472 673.885 35.8688 674.594 35.0858C675.303 34.3029 675.894 33.712 676.337 33.3426C676.781 32.9733 677.135 32.7222 677.416 32.6188C677.682 32.5154 677.992 32.4711 678.347 32.4711C679.514 32.4711 680.429 33.0028 681.124 34.0665C681.818 35.1302 682.158 36.5484 682.158 38.3359C682.158 39.0893 682.055 39.828 681.848 40.5519C681.641 41.2757 681.272 42.3246 680.71 43.6837C678.731 48.4111 677.253 52.5918 676.293 56.226C675.333 59.8602 674.86 63.1841 674.86 66.1978C674.86 66.8182 674.875 67.3354 674.919 67.7342C674.949 68.1479 675.037 68.591 675.17 69.0637C675.303 69.5512 675.51 70.0683 675.791 70.6592C676.057 71.2354 676.47 71.974 677.017 72.8752C677.564 73.8354 677.844 74.6185 677.844 75.2389C677.844 75.7855 677.593 76.2287 677.076 76.5684C676.559 76.9082 675.924 77.0856 675.17 77.0856C674.491 77.0856 673.737 76.8787 672.91 76.465C672.083 76.0514 671.3 75.5048 670.546 74.8252C669.586 73.865 668.862 72.6831 668.389 71.2797C667.902 69.8763 667.666 68.1183 667.666 65.991C667.666 64.691 667.695 63.5091 667.769 62.4455C667.843 61.3818 668.005 60.2147 668.286 58.9443C668.552 57.6738 668.921 56.1817 669.365 54.468C669.808 52.7543 670.443 50.5237 671.27 47.7907L669.01 50.0509L657.502 62.0761Z" fill="white"/>
<path d="M692.543 59.7125C692.056 60.6728 691.731 61.5148 691.568 62.2239C691.391 62.9477 691.317 63.7898 691.317 64.7353C691.317 66.1683 691.524 67.1138 691.938 67.557C692.351 68.0002 693.208 68.2218 694.508 68.2218C695.675 68.2218 696.768 68.1035 697.803 67.8672C698.837 67.6308 699.856 67.2468 700.89 66.7297C701.924 66.2126 703.003 65.5331 704.125 64.6762C705.263 63.8194 706.504 62.741 707.878 61.4409C708.631 60.6875 709.355 60.3034 710.035 60.3034C710.507 60.3034 710.965 60.5103 711.364 60.9239C711.778 61.3376 711.985 61.8103 711.985 62.3569C711.985 63.6569 711.379 65.0456 710.182 66.5229C708.986 68.0002 707.479 69.3445 705.662 70.5854C703.845 71.8116 701.88 72.8456 699.753 73.6729C697.625 74.5002 695.601 74.8991 693.696 74.8991C692.396 74.8991 691.155 74.6184 690.002 74.0718C688.835 73.5252 687.786 72.7719 686.871 71.8116C685.94 70.8514 685.216 69.7729 684.655 68.5763C684.108 67.3797 683.827 66.0944 683.827 64.7205C683.827 62.1943 684.477 59.4761 685.777 56.5954C687.077 53.7146 689.101 50.435 691.834 46.727C693.548 44.3929 695.291 42.2951 697.079 40.4042C698.866 38.5133 700.58 36.903 702.22 35.5734C703.86 34.2438 705.426 33.2098 706.903 32.4859C708.38 31.762 709.665 31.4074 710.759 31.4074C712.945 31.4074 714.644 32.0279 715.84 33.254C717.037 34.4802 717.643 36.2087 717.643 38.3951C717.643 39.9019 717.185 41.7338 716.254 43.8906C715.323 46.0475 714.186 48.0566 712.812 49.9032C710.212 53.1976 707.509 55.7533 704.687 57.5556C701.88 59.3727 699.177 60.2739 696.562 60.2739C696.015 60.2739 695.454 60.2443 694.863 60.1705C694.287 60.0966 693.504 59.9341 692.543 59.6534V59.7125ZM697.995 53.6408C699.295 53.7146 700.757 53.0942 702.367 51.7941C703.978 50.4941 705.913 48.3964 708.173 45.5304C708.853 44.7031 709.503 43.5951 710.123 42.1917C710.744 40.7882 711.054 39.7394 711.054 39.0598C711.054 38.7939 710.951 38.5132 710.744 38.2325C710.537 37.9518 710.33 37.8189 710.123 37.8189C709.444 37.8189 708.277 38.5576 706.622 40.0349C704.982 41.5122 703.298 43.344 701.585 45.5304C701.245 45.944 700.935 46.3134 700.654 46.6679C700.373 47.0077 700.048 47.4509 699.679 47.9975C699.295 48.5441 698.822 49.268 698.246 50.1543C697.67 51.0407 696.887 52.2078 695.926 53.6555H697.98L697.995 53.6408Z" fill="white"/>
</svg>
